# xmcd CD database generated by RipIT
#
# Track frame offsets:
# 150
# 19889
# 40354
# 60974
# 90636
# 101975
# 123970
# 135592
# 152514
# 163587
# 185606
#
# Disc length: 2518 seconds
#
# Revision: 0
# Processed by: cddbd v1.5.2PL0 Copyright (c) Steve Scherf et al.
# Submitted via: RipIT 3.8.0 www.suwald.com/ripit/ripit.html on 2010-05-21 at 10:24
#
DISCID=8a09d40b
DTITLE=Quasi - American Gong
DYEAR=2010
DGENRE=Rock
TTITLE0=Repulsion
TTITLE1=Little White Horse
TTITLE2=Everything and Nothing at All
TTITLE3=Bye Bye Blackbird
TTITLE4=The Jig Is Up
TTITLE5=Black Dogs and Bubbles
TTITLE6=Death is Not The End
TTITLE7=Rockabilly Party
TTITLE8=Now What
TTITLE9=Laissez Les Bon Temps Rouler
TTITLE10=Howler
EXTD=
EXTT0=
EXTT1=
EXTT2=
EXTT3=
EXTT4=
EXTT5=
EXTT6=
EXTT7=
EXTT8=
EXTT9=
EXTT10=
PLAYORDER=
